<svg width="213" height="213" viewBox="0 0 213 213" fill="none" xmlns="http://www.w3.org/2000/svg">
<path d="M26.625 186.374V150.874C26.625 143.853 28.707 136.989 32.6078 131.151C36.5086 125.313 42.053 120.763 48.5397 118.076C55.0265 115.389 62.1644 114.686 69.0507 116.056C75.937 117.426 82.2625 120.807 87.2273 125.772C92.1921 130.737 95.5731 137.062 96.9429 143.948C98.3127 150.835 97.6096 157.973 94.9227 164.459C92.2358 170.946 87.6857 176.49 81.8477 180.391C76.0098 184.292 69.1462 186.374 62.125 186.374H26.625Z" stroke="#FF4500" stroke-width="2.75" stroke-linecap="round" stroke-linejoin="round"/>
<path d="M186.375 26.625C161.044 30.0898 137.119 40.3293 117.124 56.2625C97.1291 72.1958 81.807 93.2318 72.775 117.15" stroke="#FF4500" stroke-width="2.75" stroke-linecap="round" stroke-linejoin="round"/>
<path d="M186.375 26.625C182.91 51.9559 172.671 75.8814 156.737 95.8761C140.804 115.871 119.768 131.193 95.85 140.225" stroke="#FF4500" stroke-width="2.75" stroke-linecap="round" stroke-linejoin="round"/>
<path d="M94.075 79.875C111.321 87.8347 125.165 101.679 133.125 118.925" stroke="#FF4500" stroke-width="2.75" stroke-linecap="round" stroke-linejoin="round"/>
</svg>
