<svg width="213" height="213" viewBox="0 0 213 213" fill="none" xmlns="http://www.w3.org/2000/svg">
<path d="M106.5 88.749C106.5 74.6262 100.89 61.0819 90.9034 51.0956C80.9171 41.1093 67.3728 35.499 53.25 35.499H26.625V53.249C26.625 67.3718 32.2353 80.9161 42.2216 90.9025C52.2079 100.889 65.7522 106.499 79.875 106.499H106.5" stroke="#7BC62D" stroke-width="2.75" stroke-linecap="round" stroke-linejoin="round"/>
<path d="M106.5 124.251C106.5 110.128 112.11 96.5839 122.097 86.5975C132.083 76.6112 145.627 71.001 159.75 71.001H186.375V79.876C186.375 93.9988 180.765 107.543 170.778 117.529C160.792 127.516 147.248 133.126 133.125 133.126H106.5" stroke="#7BC62D" stroke-width="2.75" stroke-linecap="round" stroke-linejoin="round"/>
<path d="M106.5 177.499V88.749" stroke="#7BC62D" stroke-width="2.75" stroke-linecap="round" stroke-linejoin="round"/>
</svg>
