<svg width="213" height="213" viewBox="0 0 213 213" fill="none" xmlns="http://www.w3.org/2000/svg">
<path d="M161.225 153.026L161.143 152.959L161.052 152.905C152.801 148.059 143.781 142.875 134.915 138.905C126.07 134.944 117.239 132.125 109.379 132.125C99.97 132.125 89.7675 135.452 79.8481 139.99C69.9234 144.53 60.1453 150.348 51.5735 155.449L51.5462 155.465L51.5461 155.465L51.5162 155.483C48.9375 157.017 46.47 158.485 44.133 159.839L44.0791 159.87L44.0282 159.906C39.5303 163.087 35.3078 165.659 31.5844 167.43C27.8313 169.215 24.7109 170.125 22.3794 170.125C17.8447 170.125 14.3194 168.08 11.6382 164.209C8.9118 160.273 7.06749 154.445 6.12143 147.014C4.23146 132.169 5.98888 111.465 10.7265 88.2752C13.1826 76.2535 19.5425 62.9511 27.7704 52.6717C36.0453 42.3338 45.9403 35.375 55.3794 35.375C63.178 35.375 77.0548 37.2946 89.0709 42.127L89.1591 42.1625L89.2513 42.1855C96.2116 43.921 102.818 45.3752 107.379 45.3752C111.67 45.3752 117.758 44.0902 124.235 42.5003L124.337 42.4752L124.434 42.4348C136.617 37.377 150.914 35.375 158.879 35.375C168.311 35.375 178.231 42.4498 186.525 52.8569C194.769 63.2022 201.128 76.506 203.532 88.2752C208.27 111.465 210.027 132.169 208.137 147.014C207.191 154.445 205.347 160.273 202.62 164.209C199.939 168.08 196.414 170.125 191.879 170.125C188.763 170.125 184.299 168.506 178.902 165.461C173.56 162.447 167.491 158.145 161.225 153.026Z" stroke="#2F80ED" stroke-width="2.75"/>
<path d="M52 111H50.625C50.625 111.759 51.2406 112.375 52 112.375V111ZM52 94H53.375C53.375 93.2406 52.7594 92.625 52 92.625V94ZM62 111V112.375C62.7594 112.375 63.375 111.759 63.375 111H62ZM62 94V92.625C61.2406 92.625 60.625 93.2406 60.625 94H62ZM79 94V95.375C79.7594 95.375 80.375 94.7594 80.375 94H79ZM79 84H80.375C80.375 83.2406 79.7594 82.625 79 82.625V84ZM62 84H60.625C60.625 84.7594 61.2406 85.375 62 85.375V84ZM62 66H63.375C63.375 65.2406 62.7594 64.625 62 64.625V66ZM52 66V64.625C51.2406 64.625 50.625 65.2406 50.625 66H52ZM52 84V85.375C52.7594 85.375 53.375 84.7594 53.375 84H52ZM34 84V82.625C33.2406 82.625 32.625 83.2406 32.625 84H34ZM34 94H32.625C32.625 94.7594 33.2406 95.375 34 95.375V94ZM53.375 111V94H50.625V111H53.375ZM62 109.625H52V112.375H62V109.625ZM60.625 94V111H63.375V94H60.625ZM79 92.625H62V95.375H79V92.625ZM77.625 84V94H80.375V84H77.625ZM62 85.375H79V82.625H62V85.375ZM60.625 66V84H63.375V66H60.625ZM52 67.375H62V64.625H52V67.375ZM53.375 84V66H50.625V84H53.375ZM34 85.375H52V82.625H34V85.375ZM35.375 94V84H32.625V94H35.375ZM52 92.625H34V95.375H52V92.625Z" fill="#2F80ED"/>
<circle cx="153" cy="107" r="7.625" stroke="#2F80ED" stroke-width="2.75"/>
<circle cx="171" cy="89" r="7.625" stroke="#2F80ED" stroke-width="2.75"/>
<circle cx="135" cy="89" r="7.625" stroke="#2F80ED" stroke-width="2.75"/>
<path d="M160.625 71C160.625 75.2112 157.211 78.625 153 78.625C148.789 78.625 145.375 75.2112 145.375 71C145.375 66.7888 148.789 63.375 153 63.375C157.211 63.375 160.625 66.7888 160.625 71Z" stroke="#2F80ED" stroke-width="2.75"/>
</svg>
