<svg width="213" height="213" viewBox="0 0 213 213" fill="none" xmlns="http://www.w3.org/2000/svg">
<path d="M26.625 168.626C38.7675 161.616 52.5415 157.925 66.5625 157.925C80.5835 157.925 94.3575 161.616 106.5 168.626C118.643 161.616 132.417 157.925 146.438 157.925C160.458 157.925 174.232 161.616 186.375 168.626" stroke="#009988" stroke-width="2.75" stroke-linecap="round" stroke-linejoin="round"/>
<path d="M26.625 53.2491C38.7675 46.2386 52.5415 42.5479 66.5625 42.5479C80.5835 42.5479 94.3575 46.2386 106.5 53.2491C118.643 46.2386 132.417 42.5479 146.438 42.5479C160.458 42.5479 174.232 46.2386 186.375 53.2491" stroke="#009988" stroke-width="2.75" stroke-linecap="round" stroke-linejoin="round"/>
<path d="M26.625 53.25V168.625" stroke="#009988" stroke-width="2.75" stroke-linecap="round" stroke-linejoin="round"/>
<path d="M106.5 53.25V168.625" stroke="#009988" stroke-width="2.75" stroke-linecap="round" stroke-linejoin="round"/>
<path d="M186.375 53.25V168.625" stroke="#009988" stroke-width="2.75" stroke-linecap="round" stroke-linejoin="round"/>
</svg>
