<svg width="213" height="213" viewBox="0 0 213 213" fill="none" xmlns="http://www.w3.org/2000/svg">
<path d="M159.75 53.25V53.3387" stroke="#597E8D" stroke-width="2.75" stroke-linecap="round" stroke-linejoin="round"/>
<path d="M159.75 115.376L128.687 71.0008C125.697 65.5962 124.169 59.505 124.253 53.3289C124.338 47.1528 126.032 41.1056 129.169 35.7848C132.306 30.4641 136.777 26.0539 142.14 22.9899C147.503 19.926 153.573 18.3145 159.75 18.3145C165.927 18.3145 171.996 19.926 177.36 22.9899C182.723 26.0539 187.194 30.4641 190.331 35.7848C193.468 41.1056 195.162 47.1528 195.247 53.3289C195.331 59.505 193.803 65.5962 190.812 71.0008L159.75 115.376Z" stroke="#597E8D" stroke-width="2.75" stroke-linecap="round" stroke-linejoin="round"/>
<path d="M93.1875 42.1553L79.875 35.499L26.625 62.124V177.499L79.875 150.874L133.125 177.499L186.375 150.874V133.124" stroke="#597E8D" stroke-width="2.75" stroke-linecap="round" stroke-linejoin="round"/>
<path d="M79.875 35.499V150.874" stroke="#597E8D" stroke-width="2.75" stroke-linecap="round" stroke-linejoin="round"/>
<path d="M133.125 133.125V177.5" stroke="#597E8D" stroke-width="2.75" stroke-linecap="round" stroke-linejoin="round"/>
</svg>
